<?xml version="1.0" standalone="no"?>
<!DOCTYPE svg PUBLIC "-//W3C//DTD SVG 20010904//EN"
 "http://www.w3.org/TR/2001/REC-SVG-20010904/DTD/svg10.dtd">
<svg version="1.0" xmlns="http://www.w3.org/2000/svg"
 width="60.000000pt" height="60.000000pt" viewBox="0 0 60.000000 60.000000"
 preserveAspectRatio="xMidYMid meet">

<g transform="translate(0.000000,60.000000) scale(0.100000,-0.100000)"
fill="#000000" stroke="none">
<path d="M134 402 c6 -10 -25 -35 -35 -29 -3 1 -1 -2 3 -7 4 -5 20 -11 35 -12
24 -2 25 -1 10 7 -14 8 -15 14 -7 24 8 10 8 15 -1 21 -7 4 -9 3 -5 -4z"/>
<path d="M446 395 c5 -11 2 -14 -12 -9 -11 4 -16 4 -12 -1 4 -4 3 -14 -2 -20
-8 -9 -6 -14 4 -18 10 -4 13 -1 9 9 -3 7 0 14 6 14 6 0 11 -5 11 -12 0 -9 3
-9 12 0 8 8 15 9 25 1 9 -8 13 -8 13 0 0 11 -13 15 -37 12 -7 -1 -10 5 -7 13
3 8 1 17 -5 21 -7 3 -8 0 -5 -10z"/>
<path d="M257 393 c-11 -11 -8 -20 7 -20 8 0 12 6 9 14 -6 15 -7 15 -16 6z"/>
<path d="M330 390 c0 -5 5 -10 11 -10 5 0 7 5 4 10 -3 6 -8 10 -11 10 -2 0 -4
-4 -4 -10z"/>
<path d="M357 386 c-3 -8 0 -19 7 -25 10 -9 12 -6 8 14 -5 29 -8 31 -15 11z"/>
<path d="M166 365 c4 -10 19 -14 47 -13 23 1 36 3 29 6 -7 2 -10 8 -6 13 3 5
1 9 -5 9 -5 0 -12 -6 -14 -12 -4 -10 -6 -10 -6 0 -1 6 -6 12 -12 12 -5 0 -7
-4 -4 -10 3 -5 1 -10 -4 -10 -6 0 -11 5 -11 10 0 6 -4 10 -10 10 -5 0 -7 -7
-4 -15z"/>
<path d="M510 371 c0 -6 4 -13 10 -16 6 -3 7 1 4 9 -7 18 -14 21 -14 7z"/>
</g>
</svg>
